<?xml version="1.0" encoding="UTF-8" standalone="no"?>
<!-- Created with Inkscape (http://www.inkscape.org/) -->

<svg
   xmlns:dc="http://purl.org/dc/elements/1.1/"
   xmlns:cc="http://creativecommons.org/ns#"
   xmlns:rdf="http://www.w3.org/1999/02/22-rdf-syntax-ns#"
   xmlns:svg="http://www.w3.org/2000/svg"
   xmlns="http://www.w3.org/2000/svg"
   xmlns:sodipodi="http://sodipodi.sourceforge.net/DTD/sodipodi-0.dtd"
   xmlns:inkscape="http://www.inkscape.org/namespaces/inkscape"
   width="210mm"
   height="297mm"
   viewBox="0 0 744.09448819 1052.3622047"
   id="svg2"
   version="1.1"
   inkscape:version="0.91 r13725"
   sodipodi:docname="trashpanda.svg">
  <defs
     id="defs4" />
  <sodipodi:namedview
     id="base"
     pagecolor="#ffffff"
     bordercolor="#666666"
     borderopacity="1.0"
     inkscape:pageopacity="0.0"
     inkscape:pageshadow="2"
     inkscape:zoom="0.27621359"
     inkscape:cx="184.54134"
     inkscape:cy="823.19508"
     inkscape:document-units="px"
     inkscape:current-layer="layer1"
     showgrid="false"
     inkscape:window-width="1440"
     inkscape:window-height="806"
     inkscape:window-x="0"
     inkscape:window-y="1"
     inkscape:window-maximized="1"
     inkscape:object-paths="true"
     inkscape:snap-intersection-paths="true"
     inkscape:object-nodes="true"
     inkscape:snap-smooth-nodes="true"
     inkscape:snap-nodes="false" />
  <metadata
     id="metadata7">
    <rdf:RDF>
      <cc:Work
         rdf:about="">
        <dc:format>image/svg+xml</dc:format>
        <dc:type
           rdf:resource="http://purl.org/dc/dcmitype/StillImage" />
        <dc:title />
      </cc:Work>
    </rdf:RDF>
  </metadata>
  <g
     inkscape:label="Layer 1"
     inkscape:groupmode="layer"
     id="layer1">
    <path
       style="fill:#000000;fill-rule:evenodd;stroke:#000000;stroke-width:1px;stroke-linecap:butt;stroke-linejoin:miter;stroke-opacity:1"
       d="m 550.10948,200.64524 c 54.80897,-9.1328 59.37639,-38.81439 52.52525,-59.36319 -6.85111,-20.54881 -22.83707,-41.09761 -47.95786,-43.3808 -25.12077,-2.283217 -59.37637,11.41598 -59.37637,11.41598"
       id="path3403"
       inkscape:connector-curvature="0"
       sodipodi:nodetypes="cssc"
       inkscape:export-xdpi="86.718498"
       inkscape:export-ydpi="86.718498" />
    <path
       style="fill:none;fill-rule:evenodd;stroke:#000000;stroke-width:1px;stroke-linecap:butt;stroke-linejoin:miter;stroke-opacity:1"
       d="M 513.57016,575.09001 467.89599,552.25802"
       id="path3435"
       inkscape:connector-curvature="0"
       inkscape:export-xdpi="86.718498"
       inkscape:export-ydpi="86.718498" />
    <path
       inkscape:connector-curvature="0"
       id="path3445"
       d="m 308.7751,942.66578 c -9.31603,24.30925 -141.21691,55.04479 -164.04949,49.43384 -22.83262,-5.61084 -57.882965,-12.62553 -48.261556,-55.47737 9.621396,-42.85183 64.104406,-60.06407 72.917786,-62.46558 8.81334,-2.4015 -35.97729,-157.35896 11.7934,-175.75361 84.39134,-32.49587 241.0167,-51.68738 127.59986,244.26272 z"
       style="fill:#000000;fill-rule:evenodd;stroke:#000000;stroke-width:1px;stroke-linecap:butt;stroke-linejoin:miter;stroke-opacity:1"
       sodipodi:nodetypes="ssssss"
       inkscape:export-xdpi="86.718498"
       inkscape:export-ydpi="86.718498" />
    <g
       id="g4354"
       transform="matrix(2.0013662,0,0,2.0009214,-497.20446,-691.32267)"
       inkscape:export-xdpi="86.718498"
       inkscape:export-ydpi="86.718498">
      <path
         id="path3447"
         d="m 525.97852,830.56445 c 1.37899,-0.0744 3.04575,-0.0589 3.875,-0.29883 2.82133,-0.8162 6.0229,-1.69151 9.14843,-2.87695 1.56277,-0.59272 3.10591,-1.26395 4.57422,-2.04297 1.46831,-0.77901 2.86092,-1.66538 4.1211,-2.69336 1.26018,-1.02797 2.38779,-2.19751 3.32617,-3.53711 0.93837,-1.33959 1.6885,-2.85057 2.1914,-4.56445 0.5029,-1.71387 0.75914,-3.63043 0.71289,-5.78125 -0.0462,-2.15081 -0.39639,-4.53513 -1.10546,-7.18555 -0.35454,-1.3252 -0.79413,-2.59656 -1.3086,-3.8164 -0.51447,-1.21984 -1.10342,-2.38785 -1.75586,-3.50586 -1.30488,-2.23603 -2.8629,-4.27311 -4.58789,-6.12305 -1.72499,-1.84994 -3.61652,-3.51372 -5.58594,-5.00586 -1.96941,-1.49214 -4.01654,-2.81197 -6.05468,-3.97461 -2.03814,-1.16264 -4.06688,-2.16786 -5.99805,-3.02929 -1.93117,-0.86143 -3.76556,-1.57946 -5.41406,-2.16797 -3.29701,-1.17703 -5.85266,-1.83667 -6.96485,-2.0918 -0.27804,-0.0638 -0.47486,-0.42722 -0.60546,-1.05664 -0.13061,-0.62942 -0.19587,-1.52504 -0.20899,-2.64844 -0.0263,-2.24678 0.15403,-5.40852 0.41797,-9.20117 0.26394,-3.79265 0.61131,-8.21533 0.92578,-12.98047 0.31447,-4.76514 0.59537,-9.87284 0.7207,-15.03711 0.12534,-5.16426 0.0964,-10.38497 -0.20703,-15.375 -0.15173,-2.49501 -0.37191,-4.93339 -0.67578,-7.27734 -0.30386,-2.34395 -0.69178,-4.59363 -1.17773,-6.71485 -0.48596,-2.12121 -1.07153,-4.11264 -1.76953,-5.93945 -0.69801,-1.8268 -1.50921,-3.48849 -2.44922,-4.94922 -0.94002,-1.46072 -2.00873,-2.72116 -3.22071,-3.74414 -1.21198,-1.02297 -2.56617,-1.80871 -4.08007,-2.32226 -2.67445,-0.90724 -5.4774,-1.78488 -8.36719,-2.59571 -2.88979,-0.81082 -5.86716,-1.55528 -8.88867,-2.19922 -3.02152,-0.64393 -6.08859,-1.18718 -9.15821,-1.59374 -2.60831,-0.34547 -5.20967,-0.5312 -7.79687,-0.65821 -34.50469,0.76467 -61.34759,26.39129 -16.17578,131.33008 4.32978,10.05857 51.79529,20.51063 73.54297,21.6582 z"
         style="fill:#000000;fill-rule:evenodd;stroke:#000000;stroke-width:0.4997142px;stroke-linecap:butt;stroke-linejoin:miter;stroke-opacity:1"
         inkscape:connector-curvature="0" />
      <path
         inkscape:connector-curvature="0"
         id="path4233"
         d="m 521.86422,830.56444 c 4.08972,0.21581 7.57501,0.21795 9.36132,-0.29883 11.28532,-3.26481 28.64132,-7.47832 22.96875,-28.68164 -5.67255,-21.20331 -33.22117,-28.69433 -37.66992,-29.71484 -4.44875,-1.02049 11.89042,-79.0292 -12.33203,-87.24609 -11.92583,-4.04554 -26.36331,-7.34233 -39.69531,-7.04688 2.5872,0.12701 5.18856,0.31274 7.79687,0.65821 3.06962,0.40656 6.13669,0.94981 9.15821,1.59374 3.02151,0.64394 5.99888,1.3884 8.88867,2.19922 2.88979,0.81083 5.69274,1.68847 8.36719,2.59571 1.5139,0.51355 2.86809,1.29929 4.08007,2.32226 1.21198,1.02298 2.28069,2.28342 3.22071,3.74414 0.94001,1.46073 1.75121,3.12242 2.44922,4.94922 0.698,1.82681 1.28357,3.81824 1.76953,5.93945 0.48595,2.12122 0.87387,4.3709 1.17773,6.71485 0.30387,2.34395 0.52405,4.78233 0.67578,7.27734 0.30346,4.99003 0.33237,10.21074 0.20703,15.375 -0.12533,5.16427 -0.40623,10.27197 -0.7207,15.03711 -0.31447,4.76514 -0.66184,9.18782 -0.92578,12.98047 -0.26394,3.79265 -0.44422,6.95439 -0.41797,9.20117 0.0131,1.1234 0.0784,2.01902 0.20899,2.64844 0.1306,0.62942 0.32742,0.99286 0.60546,1.05664 1.11219,0.25513 3.66784,0.91477 6.96485,2.0918 1.6485,0.58851 3.48289,1.30654 5.41406,2.16797 1.93117,0.86143 3.95991,1.86665 5.99805,3.02929 2.03814,1.16264 4.08527,2.48247 6.05468,3.97461 1.96942,1.49214 3.86095,3.15592 5.58594,5.00586 1.72499,1.84994 3.28301,3.88702 4.58789,6.12305 0.65244,1.11801 1.24139,2.28602 1.75586,3.50586 0.51447,1.21984 0.95406,2.4912 1.3086,3.8164 0.70907,2.65042 1.05922,5.03474 1.10546,7.18555 0.0462,2.15082 -0.20999,4.06738 -0.71289,5.78125 -0.5029,1.71388 -1.25303,3.22486 -2.1914,4.56445 -0.93838,1.3396 -2.06599,2.50914 -3.32617,3.53711 -1.26018,1.02798 -2.65279,1.91435 -4.1211,2.69336 -1.46831,0.77902 -3.01145,1.45025 -4.57422,2.04297 -3.12553,1.18544 -6.3271,2.06075 -9.14843,2.87695 -0.82925,0.2399 -2.49601,0.22444 -3.875,0.29883 z"
         style="fill:#4d4d4d;fill-rule:evenodd;stroke:none;stroke-width:1px;stroke-linecap:butt;stroke-linejoin:miter;stroke-opacity:1" />
    </g>
    <path
       style="fill:#4d4d4d;fill-rule:evenodd;stroke:none;stroke-width:1px;stroke-linecap:butt;stroke-linejoin:miter;stroke-opacity:1"
       d="m 276.74273,681.51628 c 63.12725,6.49766 107.73251,63.61868 32.03358,261.14761 -8.24716,21.5202 -112.51274,48.05847 -152.182,49.97619 0.13444,0.0331 0.28853,0.0732 0.42215,0.10511 22.83258,5.61084 154.73347,-25.12366 164.04949,-49.43292 80.53233,-210.14118 24.91056,-261.37467 -44.32322,-261.79634 z"
       id="path4192"
       inkscape:export-xdpi="86.718498"
       inkscape:export-ydpi="86.718498"
       inkscape:connector-curvature="0" />
    <path
       style="fill:#ffffff;fill-rule:evenodd;stroke:none;stroke-width:1px;stroke-linecap:butt;stroke-linejoin:miter;stroke-opacity:1"
       d="m 148.17554,591.07245 c 0,0 0,118.72639 13.48797,141.55839 97.12916,112.94012 359.39099,110.80627 386.65477,4.5664 8.09031,-17.57951 10.27235,-134.97486 0.43271,-196.04434 C 488.12419,164.87402 252.5999,324.37397 214.38404,322.09076 c -71.51798,48.54373 -66.2085,268.98169 -66.2085,268.98169 z"
       id="path3439"
       inkscape:connector-curvature="0"
       sodipodi:nodetypes="cccscc"
       inkscape:export-xdpi="86.718498"
       inkscape:export-ydpi="86.718498" />
    <path
       style="fill:#e6e6e6;fill-rule:evenodd;stroke:none;stroke-width:1px;stroke-linecap:butt;stroke-linejoin:miter;stroke-opacity:1"
       d="M 483.33582,352.46529 C 470.96535,403.62275 287.40345,442.92905 227.14725,349.5025"
       id="path3352"
       inkscape:connector-curvature="0"
       sodipodi:nodetypes="cc"
       inkscape:export-xdpi="86.718498"
       inkscape:export-ydpi="86.718498" />
    <path
       sodipodi:nodetypes="ccc"
       inkscape:connector-curvature="0"
       id="path4172"
       d="m 547.07053,745.37577 c 13.70833,-44.1061 17.72791,-296.73913 -69.90094,-388.85488 0,0 76.34707,188.05353 69.90094,388.85488 z"
       style="fill:#e6e6e6;fill-rule:evenodd;stroke:none;stroke-width:1px;stroke-linecap:butt;stroke-linejoin:miter;stroke-opacity:1"
       inkscape:export-xdpi="86.718498"
       inkscape:export-ydpi="86.718498" />
    <path
       sodipodi:nodetypes="cssc"
       inkscape:connector-curvature="0"
       id="path4176"
       d="M 463.43549,340.3385 C 840.17052,825.90813 37.810046,633.80253 204.95128,461.85904 c 43.09132,-44.32939 200.9011,126.73749 258.00174,73.89852 28.21814,-26.11211 19.83978,-41.24768 0.48247,-195.41906 z"
       style="fill:#e6e6e6;fill-rule:evenodd;stroke:none;stroke-width:1px;stroke-linecap:butt;stroke-linejoin:miter;stroke-opacity:1"
       inkscape:export-xdpi="86.718498"
       inkscape:export-ydpi="86.718498" />
    <path
       sodipodi:nodetypes="ccccc"
       inkscape:connector-curvature="0"
       id="path4178"
       d="M 143.16631,593.81699 C 190.59673,676.34064 465.82416,577.10924 459.74244,498.73012 388.42265,411.33247 267.77559,541.46185 230.08151,523.0378 211.80404,456.66898 255.06975,425.05909 214.11846,323.93133 114.68491,293.80155 124.14172,539.7354 143.16631,593.81699 Z"
       style="fill:#e6e6e6;fill-rule:evenodd;stroke:none;stroke-width:1px;stroke-linecap:butt;stroke-linejoin:miter;stroke-opacity:1"
       inkscape:export-xdpi="86.718498"
       inkscape:export-ydpi="86.718498" />
    <path
       style="fill:#000000;fill-rule:evenodd;stroke:none;stroke-width:1px;stroke-linecap:butt;stroke-linejoin:miter;stroke-opacity:1"
       d="M 473.34256,326.61786 C 850.07758,812.1875 47.717111,620.08188 214.85835,448.1384 c 43.09131,-44.32938 200.9011,126.73749 258.00174,73.89852 28.21814,-26.11211 19.83978,-41.24768 0.48247,-195.41906 z"
       id="path3437"
       inkscape:connector-curvature="0"
       sodipodi:nodetypes="cssc"
       inkscape:export-xdpi="86.718498"
       inkscape:export-ydpi="86.718498" />
    <path
       sodipodi:nodetypes="cssc"
       inkscape:connector-curvature="0"
       id="path3405"
       d="m 245.98557,71.579793 c -39.82236,-38.742486 -73.29945,-36.25806 -85.80223,-18.568492 -12.5028,17.689544 -19.59522,42.737702 -6.55679,64.326159 13.0384,21.58844 42.70389,35.44126 42.70389,35.44126"
       style="fill:#000000;fill-rule:evenodd;stroke:none;stroke-width:1px;stroke-linecap:butt;stroke-linejoin:miter;stroke-opacity:1"
       inkscape:export-xdpi="86.718498"
       inkscape:export-ydpi="86.718498" />
    <path
       style="fill:#ffffff;fill-rule:evenodd;stroke:none;stroke-width:1px;stroke-linecap:butt;stroke-linejoin:miter;stroke-opacity:1"
       d="M 330.87354,394.71726 C 626.11278,409.26174 614.12262,36.542757 349.14319,24.838867 260.96871,20.944291 199.70599,91.121295 182.91372,168.77781 162.62313,269.02798 214.3844,386.17307 330.87354,394.71726 Z"
       id="path3401"
       inkscape:connector-curvature="0"
       sodipodi:nodetypes="cscc"
       inkscape:export-xdpi="86.718498"
       inkscape:export-ydpi="86.718498" />
    <path
       sodipodi:nodetypes="cscc"
       inkscape:connector-curvature="0"
       id="path3350"
       d="M 330.87354,394.71726 C 626.11278,409.26174 614.12262,36.542757 349.14319,24.838867 260.96871,20.944291 199.70599,91.121295 182.91372,168.77781 162.62313,269.02798 214.3844,386.17307 330.87354,394.71726 Z"
       style="fill:#ffffff;fill-rule:evenodd;stroke:none;stroke-width:1px;stroke-linecap:butt;stroke-linejoin:miter;stroke-opacity:1"
       inkscape:export-xdpi="86.718498"
       inkscape:export-ydpi="86.718498" />
    <path
       style="fill:#e6e6e6;fill-rule:evenodd;stroke:none;stroke-width:1px;stroke-linecap:butt;stroke-linejoin:miter;stroke-opacity:1"
       d="M 408.80704,388.10185 C 535.04974,363.658 611.43771,54.695237 365.58433,30.114693 622.76548,52.051614 589.04097,366.95688 408.80704,388.10185 Z"
       id="path4166"
       inkscape:connector-curvature="0"
       sodipodi:nodetypes="ccc"
       inkscape:export-xdpi="86.718498"
       inkscape:export-ydpi="86.718498" />
    <path
       style="fill:#e6e6e6;fill-rule:evenodd;stroke:none;stroke-width:1px;stroke-linecap:butt;stroke-linejoin:miter;stroke-opacity:1"
       d="m 390.24993,342.20366 c -23.75028,42.04146 -79.01059,35.08113 -86.78087,-15.98241 17.28201,47.36929 57.85391,52.69676 86.78087,15.98241 z"
       id="path3419"
       inkscape:connector-curvature="0"
       sodipodi:nodetypes="ccc"
       inkscape:export-xdpi="86.718498"
       inkscape:export-ydpi="86.718498" />
    <path
       style="fill:#e6e6e6;fill-rule:evenodd;stroke:none;stroke-width:1px;stroke-linecap:round;stroke-linejoin:miter;stroke-opacity:1"
       d="m 365.58303,304.29682 c 11.40287,-2.31394 -32.42578,-3.19076 -32.42578,-3.19076 -2.97616,1.79552 32.42578,3.19076 32.42578,3.19076 z"
       id="path3421"
       inkscape:connector-curvature="0"
       sodipodi:nodetypes="scs"
       inkscape:export-xdpi="86.718498"
       inkscape:export-ydpi="86.718498" />
    <path
       style="fill:#e6e6e6;fill-rule:evenodd;stroke:none;stroke-width:1px;stroke-linecap:butt;stroke-linejoin:miter;stroke-opacity:1"
       d="M 433.26153,282.87619 C 457.2197,162.5158 326.56552,190.53653 326.56552,190.53653 c 38.86132,13.54468 106.45607,55.26144 106.69601,92.33966 z"
       id="path4162"
       inkscape:connector-curvature="0"
       sodipodi:nodetypes="ccc"
       inkscape:export-xdpi="86.718498"
       inkscape:export-ydpi="86.718498" />
    <path
       sodipodi:nodetypes="ccssc"
       inkscape:connector-curvature="0"
       id="path4164"
       d="M 510.41412,161.4128 C 396.02349,125.74558 329.12763,123.15897 243.16383,110.71433 c -33.29877,140.75342 98.54196,149.43214 110.25392,54.3573 4.96745,-40.32459 40.28942,-12.3692 42.2191,-2.29749 29.6698,154.85924 146.40008,64.93329 114.77727,-1.36134 z"
       style="fill:#e6e6e6;fill-rule:evenodd;stroke:none;stroke-width:1px;stroke-linecap:butt;stroke-linejoin:miter;stroke-opacity:1"
       inkscape:export-xdpi="86.718498"
       inkscape:export-ydpi="86.718498" />
    <path
       style="fill:#ffffff;fill-rule:evenodd;stroke:none;stroke-width:1px;stroke-linecap:butt;stroke-linejoin:miter;stroke-opacity:1"
       d="M 433.64037,285.12366 C 429.62733,164.65408 296.09848,164.27333 269.21345,264.57487"
       id="path3415"
       inkscape:connector-curvature="0"
       sodipodi:nodetypes="cc"
       inkscape:export-xdpi="86.718498"
       inkscape:export-ydpi="86.718498" />
    <path
       style="fill:#000000;fill-rule:evenodd;stroke:#000000;stroke-width:1px;stroke-linecap:butt;stroke-linejoin:miter;stroke-opacity:1"
       d="m 378.84571,228.02934 c -3.3287,-11.02573 -28.52025,-14.55449 -34.25561,-4.56639 -4.32131,7.52552 7.34606,8.74517 15.98595,9.57226 8.0552,0.77114 20.60792,2.73925 18.26966,-5.00587 z"
       id="path3417"
       inkscape:connector-curvature="0"
       sodipodi:nodetypes="ssss"
       inkscape:export-xdpi="86.718498"
       inkscape:export-ydpi="86.718498" />
    <path
       sodipodi:nodetypes="cc"
       style="fill:#ffffff;fill-rule:evenodd;stroke:none;stroke-width:1px;stroke-linecap:butt;stroke-linejoin:miter;stroke-opacity:1"
       d="m 240.17689,637.3132 c -257.56128,276.55691 -128.78064,138.27845 0,0 z"
       id="path4186"
       inkscape:connector-curvature="0"
       inkscape:export-xdpi="86.718498"
       inkscape:export-ydpi="86.718498" />
    <path
       sodipodi:nodetypes="cc"
       inkscape:connector-curvature="0"
       id="path4352"
       d="m 489.26008,494.00637 c -655.20326,623.33353 -327.60163,311.6668 0,0 z"
       style="fill:#4d4d4d;fill-rule:evenodd;stroke:none;stroke-width:1px;stroke-linecap:butt;stroke-linejoin:miter;stroke-opacity:1"
       inkscape:export-xdpi="86.718498"
       inkscape:export-ydpi="86.718498" />
    <path
       style="fill:#000000;fill-rule:evenodd;stroke:none;stroke-width:1px;stroke-linecap:butt;stroke-linejoin:miter;stroke-opacity:1"
       d="m 136.75841,586.50604 c 26.79415,41.26183 117.93128,37.08488 201.51096,12.79509 83.57968,-24.28976 159.60191,-68.69238 156.16624,-107.88196 -80.57924,-87.39764 -216.88989,42.73173 -259.47778,24.30768 -20.65046,-66.36882 28.23245,-97.9787 -18.03556,-199.10648 -112.343,-30.12977 -101.65841,215.80409 -80.16386,269.88567 z"
       id="path3433"
       inkscape:connector-curvature="0"
       sodipodi:nodetypes="cscccc"
       inkscape:export-xdpi="86.718498"
       inkscape:export-ydpi="86.718498" />
    <path
       id="path4205"
       d="m 234.04988,107.05607 c -33.5179,140.75342 99.18952,149.43225 110.97852,54.35742 5.0002,-40.32459 40.55565,-12.37053 42.49805,-2.29883 29.86509,154.85925 147.36415,64.93331 115.5332,-1.36133 C 387.91613,122.08612 320.57948,119.50071 234.04988,107.05607 Z m 112.16993,37.35742 2.72656,0 c -7.48131,9.65967 -5.1838,23.79334 -9.96094,34.76172 -6.96129,22.62053 -27.55407,42.1573 -51.52344,43 l 0,-0.55469 c 22.9226,-2.02306 42.36881,-20.99318 49.09375,-42.8457 4.71176,-10.81827 2.54584,-24.71442 9.66407,-34.36133 z m 150.90429,13.63086 c 1.49971,0.45689 3.004,0.89877 4.50196,1.36132 6.37492,13.59406 6.25285,29.75091 0.78711,43.66602 -8.46475,22.59696 -31.65963,42.88018 -57.125,39.06836 l 0,-0.99023 c 23.65126,0.95611 44.6394,-18.24218 52.59961,-39.49219 5.45871,-13.89726 5.58641,-30.03012 -0.76368,-43.61328 z"
       style="fill:#000000;fill-rule:evenodd;stroke:#000000;stroke-width:1px;stroke-linecap:butt;stroke-linejoin:miter;stroke-opacity:1"
       inkscape:connector-curvature="0" />
  </g>
</svg>
